<svg xmlns="http://www.w3.org/2000/svg" xmlns:xlink="http://www.w3.org/1999/xlink" viewBox="0,0,256,256" width="64px" height="64px" fill-rule="nonzero"><defs><linearGradient x1="30.968" y1="7.277" x2="30.968" y2="56.553" gradientUnits="userSpaceOnUse" id="color-1"><stop offset="0" stop-color="#e21d46"></stop><stop offset="1" stop-color="#88112a"></stop></linearGradient><linearGradient x1="34.5" y1="7.021" x2="34.5" y2="51.281" gradientUnits="userSpaceOnUse" id="color-2"><stop offset="0" stop-color="#e42c52"></stop><stop offset="1" stop-color="#550012"></stop></linearGradient></defs><g fill="none" fill-rule="nonzero" stroke="none" stroke-width="1" stroke-linecap="butt" stroke-linejoin="miter" stroke-miterlimit="10" stroke-dasharray="" stroke-dashoffset="0" font-family="none" font-weight="none" font-size="none" text-anchor="none" style="mix-blend-mode: normal"><g transform="scale(4,4)"><path d="M31.062,58.992c-1.124,0 -2.231,-0.07 -3.319,-0.209c-0.938,-0.119 -1.871,-0.289 -2.777,-0.505l0.465,-1.945c0.835,0.199 1.698,0.356 2.564,0.466c1.008,0.128 2.034,0.193 3.049,0.193l0.101,-0.001v2l-0.072,0.001c-0.005,0 -0.008,0 -0.011,0zM37.324,58.219l-0.486,-1.939c1.858,-0.466 3.663,-1.157 5.363,-2.056l0.934,1.77c-1.842,0.971 -3.797,1.72 -5.811,2.225zM19.125,56.121c-1.849,-0.95 -3.582,-2.125 -5.154,-3.492l1.312,-1.51c1.45,1.262 3.051,2.347 4.756,3.223zM48.252,52.452l-1.326,-1.498c1.441,-1.275 2.726,-2.721 3.818,-4.294l1.643,1.141c-1.184,1.704 -2.575,3.269 -4.135,4.651zM9.794,48.017c-1.204,-1.701 -2.202,-3.541 -2.966,-5.47l1.859,-0.736c0.705,1.78 1.626,3.479 2.739,5.05zM55.295,42.295l-1.867,-0.715c0.682,-1.782 1.15,-3.657 1.394,-5.573c0.046,-0.361 0.084,-0.72 0.112,-1.078l1.994,0.162c-0.032,0.388 -0.072,0.777 -0.122,1.168c-0.264,2.074 -0.772,4.104 -1.511,6.036zM5.246,36.526c-0.158,-1.159 -0.238,-2.339 -0.237,-3.506c0,-0.9 0.048,-1.815 0.143,-2.718l1.988,0.208c-0.087,0.833 -0.131,1.679 -0.131,2.511c-0.001,1.076 0.073,2.164 0.22,3.233zM54.717,29.188c-0.304,-1.895 -0.837,-3.753 -1.584,-5.521l1.842,-0.778c0.81,1.916 1.388,3.929 1.717,5.983zM8.409,24.907l-1.885,-0.671c0.698,-1.959 1.635,-3.833 2.783,-5.571l1.668,1.103c-1.059,1.603 -1.922,3.332 -2.566,5.139zM50.28,18.68c-1.146,-1.543 -2.477,-2.947 -3.951,-4.173l1.277,-1.538c1.598,1.327 3.037,2.847 4.279,4.518zM14.696,15.388l-1.359,-1.468c1.526,-1.413 3.221,-2.643 5.036,-3.655l0.975,1.747c-1.678,0.935 -3.243,2.071 -4.652,3.376zM41.5,11.394c-1.723,-0.836 -3.551,-1.465 -5.434,-1.868l0.418,-1.956c2.04,0.437 4.021,1.118 5.889,2.025zM24.662,9.838l-0.529,-1.929c2.004,-0.551 4.075,-0.858 6.157,-0.914l0.053,1.999c-1.921,0.052 -3.832,0.336 -5.681,0.844z" fill="url(#color-1)"></path><path d="M40.498,39.517c0.526,-0.145 1.034,-0.289 1.502,-0.468v2.082c-0.562,0.512 -1.988,0.869 -2.827,0.869c-0.341,0 -1.226,-0.18 -1.226,-1c0,-0.669 0.787,-0.998 2.551,-1.483zM50,33c0,10.493 -8.507,19 -19,19c-10.493,0 -19,-8.507 -19,-19c0,-10.493 8.507,-19 19,-19c10.493,0 19,8.507 19,19zM31.617,24.872c0,3.314 2.686,6 6,6c3.314,0 6,-2.686 6,-6c0,-3.314 -2.686,-6 -6,-6c-3.314,0 -6,2.687 -6,6zM25,42h-5v-11h-2v13h7zM34,34h-2v6c0,1.059 -1.451,2 -2.596,2c-0.867,0 -1.404,-0.276 -1.404,-1.649v-6.351h-2v6.351c0,2.285 1.272,3.649 3.404,3.649c0.884,0 1.808,-0.288 2.596,-0.779v0.779h2v-4zM44,37.032c0,-2.295 -1.472,-3.777 -3.75,-3.777c-1.916,0 -3.856,1.075 -3.856,3.131h2c0,-0.824 1.139,-1.131 1.856,-1.131c1.116,0 1.668,0.5 1.736,1.555l-0.006,-0.006c-0.318,0.318 -1.219,0.566 -2.013,0.784c-1.697,0.467 -4.021,1.106 -4.021,3.412c0,1.878 1.64,3 3.226,3c0.529,0 1.728,-0.136 2.827,-0.583v0.583h2v-6.968zM51,8c-3.314,0 -6,2.686 -6,6c0,3.314 2.686,6 6,6c3.314,0 6,-2.686 6,-6c0,-3.314 -2.686,-6 -6,-6z" fill="url(#color-2)"></path></g></g></svg>